<?xml version="1.0" standalone="no"?>
<!DOCTYPE svg PUBLIC "-//W3C//DTD SVG 20010904//EN"
 "http://www.w3.org/TR/2001/REC-SVG-20010904/DTD/svg10.dtd">
<svg version="1.0" xmlns="http://www.w3.org/2000/svg"
 width="512.000000pt" height="512.000000pt" viewBox="0 0 512.000000 512.000000"
 preserveAspectRatio="xMidYMid meet">

<g transform="translate(0.000000,512.000000) scale(0.100000,-0.100000)"
fill="#000000" stroke="none">
<path d="M2321 5110 c-1340 -130 -2361 -1283 -2318 -2620 13 -389 97 -726 268
-1069 249 -502 647 -900 1150 -1150 815 -406 1779 -350 2539 147 297 194 579
482 771 788 74 116 184 342 234 478 51 138 110 376 131 531 23 157 26 521 6
660 -59 415 -191 769 -410 1099 -92 140 -185 254 -315 385 -399 403 -895 653
-1462 737 -122 18 -466 26 -594 14z m491 -1289 c222 -57 416 -228 500 -440 20
-51 23 -80 28 -296 l5 -240 87 -7 c162 -12 264 -60 325 -151 69 -103 87 -223
81 -545 -4 -201 -8 -249 -26 -315 -63 -231 -238 -422 -458 -500 -127 -45 -185
-49 -844 -45 -606 4 -616 4 -690 27 -203 62 -367 195 -454 371 -33 66 -53 125
-67 194 -19 94 -20 130 -17 725 4 618 4 627 27 701 72 238 215 399 426 481
134 53 183 57 611 58 355 1 398 -1 466 -18z"/>
<path d="M2025 3183 c-103 -54 -134 -168 -72 -261 48 -73 65 -77 387 -80 157
-2 308 -1 337 3 92 11 153 69 161 154 6 66 -2 93 -40 137 -56 63 -62 64 -420
64 -275 -1 -327 -3 -353 -17z"/>
<path d="M2075 2275 c-5 -2 -22 -6 -37 -9 -71 -16 -137 -119 -124 -193 11 -57
51 -112 99 -134 39 -17 72 -19 542 -19 465 0 503 2 541 19 99 45 133 167 71
260 -51 77 -41 76 -592 78 -269 1 -494 0 -500 -2z"/>
</g>
</svg>
